# xmcd
#
# Track frame offsets: 
#        150
#        12380
#        24600
#        39021
#        51392
#        64197
#        78177
#        92672
#        104727
#        119778
#        132475
#        147217
#
# Disc length: 2121 seconds
#
# Revision: 0
# Processed by: cddbd v1.5.2PL0 Copyright (c) Steve Scherf et al.
# Submitted via: ExactAudioCopy v1.1
#
DISCID=a808470c
DTITLE=Ernest Tubb - Ernest Tubb's Greatest Hits Vol II
DYEAR=1900
DGENRE=Country
TTITLE0=Sweet Thang ft. Loretta Lynn
TTITLE1=Tomorrow Never Comes
TTITLE2=Warm Red Wine
TTITLE3=Little Old Band Of Gold
TTITLE4=Filipino Baby
TTITLE5=Thoughts Of A Fool
TTITLE6=Missing In Action
TTITLE7=Fortunes In Memories
TTITLE8=Seaman's Blues
TTITLE9=Pass The Booze
TTITLE10=Hey La La ft. The Anita Kerr Singers
TTITLE11=Answer The Phone
EXTD=
EXTT0=
EXTT1=
EXTT2=
EXTT3=
EXTT4=
EXTT5=
EXTT6=
EXTT7=
EXTT8=
EXTT9=
EXTT10=
EXTT11=
PLAYORDER=
